<?xml version="1.0" encoding="utf-8" standalone="no"?>
<!DOCTYPE svg PUBLIC "-//W3C//DTD SVG 1.1//EN"
  "http://www.w3.org/Graphics/SVG/1.1/DTD/svg11.dtd">
<svg xmlns:xlink="http://www.w3.org/1999/xlink" width="576pt" height="302.4pt" viewBox="0 0 576 302.4" xmlns="http://www.w3.org/2000/svg" version="1.1">
 <metadata>
  <rdf:RDF xmlns:dc="http://purl.org/dc/elements/1.1/" xmlns:cc="http://creativecommons.org/ns#" xmlns:rdf="http://www.w3.org/1999/02/22-rdf-syntax-ns#">
   <cc:Work>
    <dc:type rdf:resource="http://purl.org/dc/dcmitype/StillImage"/>
    <dc:date>2026-09-28T17:07:07.797580</dc:date>
    <dc:format>image/svg+xml</dc:format>
    <dc:creator>
     <cc:Agent>
      <dc:title>Matplotlib v3.10.9, https://matplotlib.org/</dc:title>
     </cc:Agent>
    </dc:creator>
   </cc:Work>
  </rdf:RDF>
 </metadata>
 <defs>
  <style type="text/css">*{stroke-linejoin: round; stroke-linecap: butt}</style>
 </defs>
 <g id="figure_1">
  <g id="patch_1">
   <path d="M 0 302.4
L 576 302.4
L 576 0
L 0 0
z
" style="fill: #ffffff"/>
  </g>
  <g id="axes_1">
   <g id="patch_2">
    <path d="M 79.99 253.3795
L 567.36 253.3795
L 567.36 46.944
L 79.99 46.944
z
" style="fill: #ffffff"/>
   </g>
   <g id="matplotlib.axis_1">
    <g id="xtick_1">
     <g id="line2d_1">
      <path d="M 113.990957 253.3795
L 113.990957 46.944
" clip-path="url(#peeeddee9c6)" style="fill: none; stroke: #b0b0b0; stroke-opacity: 0.15; stroke-width: 0.8; stroke-linecap: square"/>
     </g>
     <g id="line2d_2">
      <defs>
       <path id="m6642a0614e" d="M 0 0
L 0 3.5
" style="stroke: #000000; stroke-width: 0.6"/>
      </defs>
      <g>
       <use xlink:href="#m6642a0614e" x="113.990957" y="253.3795" style="stroke: #000000; stroke-width: 0.6"/>
      </g>
     </g>
     <g id="text_1">
      <text style="font-size: 7px; font-family: 'DejaVu Sans'; text-anchor: middle" x="113.990957" y="265.698406" transform="rotate(-0 113.990957 265.698406)">0.4</text>
     </g>
    </g>
    <g id="xtick_2">
     <g id="line2d_3">
      <path d="M 209.187056 253.3795
L 209.187056 46.944
" clip-path="url(#peeeddee9c6)" style="fill: none; stroke: #b0b0b0; stroke-opacity: 0.15; stroke-width: 0.8; stroke-linecap: square"/>
     </g>
     <g id="line2d_4">
      <g>
       <use xlink:href="#m6642a0614e" x="209.187056" y="253.3795" style="stroke: #000000; stroke-width: 0.6"/>
      </g>
     </g>
     <g id="text_2">
      <text style="font-size: 7px; font-family: 'DejaVu Sans'; text-anchor: middle" x="209.187056" y="265.698406" transform="rotate(-0 209.187056 265.698406)">0.6</text>
     </g>
    </g>
    <g id="xtick_3">
     <g id="line2d_5">
      <path d="M 304.383154 253.3795
L 304.383154 46.944
" clip-path="url(#peeeddee9c6)" style="fill: none; stroke: #b0b0b0; stroke-opacity: 0.15; stroke-width: 0.8; stroke-linecap: square"/>
     </g>
     <g id="line2d_6">
      <g>
       <use xlink:href="#m6642a0614e" x="304.383154" y="253.3795" style="stroke: #000000; stroke-width: 0.6"/>
      </g>
     </g>
     <g id="text_3">
      <text style="font-size: 7px; font-family: 'DejaVu Sans'; text-anchor: middle" x="304.383154" y="265.698406" transform="rotate(-0 304.383154 265.698406)">0.8</text>
     </g>
    </g>
    <g id="xtick_4">
     <g id="line2d_7">
      <path d="M 399.579253 253.3795
L 399.579253 46.944
" clip-path="url(#peeeddee9c6)" style="fill: none; stroke: #b0b0b0; stroke-opacity: 0.15; stroke-width: 0.8; stroke-linecap: square"/>
     </g>
     <g id="line2d_8">
      <g>
       <use xlink:href="#m6642a0614e" x="399.579253" y="253.3795" style="stroke: #000000; stroke-width: 0.6"/>
      </g>
     </g>
     <g id="text_4">
      <text style="font-size: 7px; font-family: 'DejaVu Sans'; text-anchor: middle" x="399.579253" y="265.698406" transform="rotate(-0 399.579253 265.698406)">1.0</text>
     </g>
    </g>
    <g id="xtick_5">
     <g id="line2d_9">
      <path d="M 494.775351 253.3795
L 494.775351 46.944
" clip-path="url(#peeeddee9c6)" style="fill: none; stroke: #b0b0b0; stroke-opacity: 0.15; stroke-width: 0.8; stroke-linecap: square"/>
     </g>
     <g id="line2d_10">
      <g>
       <use xlink:href="#m6642a0614e" x="494.775351" y="253.3795" style="stroke: #000000; stroke-width: 0.6"/>
      </g>
     </g>
     <g id="text_5">
      <text style="font-size: 7px; font-family: 'DejaVu Sans'; text-anchor: middle" x="494.775351" y="265.698406" transform="rotate(-0 494.775351 265.698406)">1.2</text>
     </g>
    </g>
    <g id="text_6">
     <text style="font-size: 8px; font-family: 'DejaVu Sans'; text-anchor: middle" x="323.675" y="278.580438" transform="rotate(-0 323.675 278.580438)">Mean matching distance (Å; lower is better)</text>
    </g>
   </g>
   <g id="matplotlib.axis_2">
    <g id="ytick_1">
     <g id="line2d_11">
      <defs>
       <path id="m84eea2b788" d="M 0 0
L -3.5 0
" style="stroke: #000000; stroke-width: 0.6"/>
      </defs>
      <g>
       <use xlink:href="#m84eea2b788" x="79.99" y="56.327432" style="stroke: #000000; stroke-width: 0.6"/>
      </g>
     </g>
     <g id="text_7">
      <text style="font-size: 7px; font-family: 'DejaVu Sans'; text-anchor: end" x="72.99" y="58.986885" transform="rotate(-0 72.99 58.986885)">LoQI</text>
     </g>
    </g>
    <g id="ytick_2">
     <g id="line2d_12">
      <g>
       <use xlink:href="#m84eea2b788" x="79.99" y="93.861159" style="stroke: #000000; stroke-width: 0.6"/>
      </g>
     </g>
     <g id="text_8">
      <text style="font-size: 7px; font-family: 'DejaVu Sans'; text-anchor: end" x="72.99" y="96.520612" transform="rotate(-0 72.99 96.520612)">Torsional Diffusion</text>
     </g>
    </g>
    <g id="ytick_3">
     <g id="line2d_13">
      <g>
       <use xlink:href="#m84eea2b788" x="79.99" y="131.394886" style="stroke: #000000; stroke-width: 0.6"/>
      </g>
     </g>
     <g id="text_9">
      <text style="font-size: 7px; font-family: 'DejaVu Sans'; text-anchor: end" x="72.99" y="134.054339" transform="rotate(-0 72.99 134.054339)">MCF drugs-L</text>
     </g>
    </g>
    <g id="ytick_4">
     <g id="line2d_14">
      <g>
       <use xlink:href="#m84eea2b788" x="79.99" y="168.928614" style="stroke: #000000; stroke-width: 0.6"/>
      </g>
     </g>
     <g id="text_10">
      <text style="font-size: 7px; font-family: 'DejaVu Sans'; text-anchor: end" x="72.99" y="171.588067" transform="rotate(-0 72.99 171.588067)">NExT-Mol DMT-L</text>
     </g>
    </g>
    <g id="ytick_5">
     <g id="line2d_15">
      <g>
       <use xlink:href="#m84eea2b788" x="79.99" y="206.462341" style="stroke: #000000; stroke-width: 0.6"/>
      </g>
     </g>
     <g id="text_11">
      <text style="font-size: 7px; font-family: 'DejaVu Sans'; text-anchor: end" x="72.99" y="209.121794" transform="rotate(-0 72.99 209.121794)">FlowR</text>
     </g>
    </g>
    <g id="ytick_6">
     <g id="line2d_16">
      <g>
       <use xlink:href="#m84eea2b788" x="79.99" y="243.996068" style="stroke: #000000; stroke-width: 0.6"/>
      </g>
     </g>
     <g id="text_12">
      <text style="font-size: 7px; font-family: 'DejaVu Sans'; text-anchor: end" x="72.99" y="246.655521" transform="rotate(-0 72.99 246.655521)">Qwen 1.7B FSQ</text>
     </g>
    </g>
   </g>
   <g id="PathCollection_1">
    <defs>
     <path id="m146862e684" d="M -2.95804 2.95804
L 2.95804 2.95804
L 2.95804 -2.95804
L -2.95804 -2.95804
z
" style="stroke: #d55e00"/>
    </defs>
    <g clip-path="url(#peeeddee9c6)">
     <use xlink:href="#m146862e684" x="123.820769" y="56.327432" style="fill: #d55e00; stroke: #d55e00"/>
    </g>
   </g>
   <g id="PathCollection_2">
    <defs>
     <path id="m3cf473b463" d="M 0 2.95804
C 0.784481 2.95804 1.536938 2.646362 2.09165 2.09165
C 2.646362 1.536938 2.95804 0.784481 2.95804 0
C 2.95804 -0.784481 2.646362 -1.536938 2.09165 -2.09165
C 1.536938 -2.646362 0.784481 -2.95804 0 -2.95804
C -0.784481 -2.95804 -1.536938 -2.646362 -2.09165 -2.09165
C -2.646362 -1.536938 -2.95804 -0.784481 -2.95804 0
C -2.95804 0.784481 -2.646362 1.536938 -2.09165 2.09165
C -1.536938 2.646362 -0.784481 2.95804 0 2.95804
z
" style="stroke: #d55e00"/>
    </defs>
    <g clip-path="url(#peeeddee9c6)">
     <use xlink:href="#m3cf473b463" x="311.77943" y="56.327432" style="fill: #ffffff; stroke: #d55e00"/>
    </g>
   </g>
   <g id="PathCollection_3">
    <defs>
     <path id="m28d069c8fa" d="M -2.95804 2.95804
L 2.95804 2.95804
L 2.95804 -2.95804
L -2.95804 -2.95804
z
" style="stroke: #cc79a7"/>
    </defs>
    <g clip-path="url(#peeeddee9c6)">
     <use xlink:href="#m28d069c8fa" x="140.184269" y="93.861159" style="fill: #cc79a7; stroke: #cc79a7"/>
    </g>
   </g>
   <g id="PathCollection_4">
    <defs>
     <path id="m1903bf04cc" d="M 0 2.95804
C 0.784481 2.95804 1.536938 2.646362 2.09165 2.09165
C 2.646362 1.536938 2.95804 0.784481 2.95804 0
C 2.95804 -0.784481 2.646362 -1.536938 2.09165 -2.09165
C 1.536938 -2.646362 0.784481 -2.95804 0 -2.95804
C -0.784481 -2.95804 -1.536938 -2.646362 -2.09165 -2.09165
C -2.646362 -1.536938 -2.95804 -0.784481 -2.95804 0
C -2.95804 0.784481 -2.646362 1.536938 -2.09165 2.09165
C -1.536938 2.646362 -0.784481 2.95804 0 2.95804
z
" style="stroke: #cc79a7"/>
    </defs>
    <g clip-path="url(#peeeddee9c6)">
     <use xlink:href="#m1903bf04cc" x="489.386115" y="93.861159" style="fill: #ffffff; stroke: #cc79a7"/>
    </g>
   </g>
   <g id="PathCollection_5">
    <defs>
     <path id="md8769528fe" d="M -2.95804 2.95804
L 2.95804 2.95804
L 2.95804 -2.95804
L -2.95804 -2.95804
z
" style="stroke: #a88700"/>
    </defs>
    <g clip-path="url(#peeeddee9c6)">
     <use xlink:href="#md8769528fe" x="152.334544" y="131.394886" style="fill: #a88700; stroke: #a88700"/>
    </g>
   </g>
   <g id="PathCollection_6">
    <defs>
     <path id="m6ad260e035" d="M 0 2.95804
C 0.784481 2.95804 1.536938 2.646362 2.09165 2.09165
C 2.646362 1.536938 2.95804 0.784481 2.95804 0
C 2.95804 -0.784481 2.646362 -1.536938 2.09165 -2.09165
C 1.536938 -2.646362 0.784481 -2.95804 0 -2.95804
C -0.784481 -2.95804 -1.536938 -2.646362 -2.09165 -2.09165
C -2.646362 -1.536938 -2.95804 -0.784481 -2.95804 0
C -2.95804 0.784481 -2.646362 1.536938 -2.09165 2.09165
C -1.536938 2.646362 -0.784481 2.95804 0 2.95804
z
" style="stroke: #a88700"/>
    </defs>
    <g clip-path="url(#peeeddee9c6)">
     <use xlink:href="#m6ad260e035" x="502.040081" y="131.394886" style="fill: #ffffff; stroke: #a88700"/>
    </g>
   </g>
   <g id="PathCollection_7">
    <defs>
     <path id="mfbdd320b27" d="M -2.95804 2.95804
L 2.95804 2.95804
L 2.95804 -2.95804
L -2.95804 -2.95804
z
" style="stroke: #56b4e9"/>
    </defs>
    <g clip-path="url(#peeeddee9c6)">
     <use xlink:href="#mfbdd320b27" x="144.550338" y="168.928614" style="fill: #56b4e9; stroke: #56b4e9"/>
    </g>
   </g>
   <g id="PathCollection_8">
    <defs>
     <path id="m926bfe3c01" d="M 0 2.95804
C 0.784481 2.95804 1.536938 2.646362 2.09165 2.09165
C 2.646362 1.536938 2.95804 0.784481 2.95804 0
C 2.95804 -0.784481 2.646362 -1.536938 2.09165 -2.09165
C 1.536938 -2.646362 0.784481 -2.95804 0 -2.95804
C -0.784481 -2.95804 -1.536938 -2.646362 -2.09165 -2.09165
C -2.646362 -1.536938 -2.95804 -0.784481 -2.95804 0
C -2.95804 0.784481 -2.646362 1.536938 -2.09165 2.09165
C -1.536938 2.646362 -0.784481 2.95804 0 2.95804
z
" style="stroke: #56b4e9"/>
    </defs>
    <g clip-path="url(#peeeddee9c6)">
     <use xlink:href="#m926bfe3c01" x="481.331782" y="168.928614" style="fill: #ffffff; stroke: #56b4e9"/>
    </g>
   </g>
   <g id="PathCollection_9">
    <defs>
     <path id="m378c9f9c24" d="M -2.95804 2.95804
L 2.95804 2.95804
L 2.95804 -2.95804
L -2.95804 -2.95804
z
" style="stroke: #009e73"/>
    </defs>
    <g clip-path="url(#peeeddee9c6)">
     <use xlink:href="#m378c9f9c24" x="172.142546" y="206.462341" style="fill: #009e73; stroke: #009e73"/>
    </g>
   </g>
   <g id="PathCollection_10">
    <defs>
     <path id="m473c45cc2a" d="M 0 2.95804
C 0.784481 2.95804 1.536938 2.646362 2.09165 2.09165
C 2.646362 1.536938 2.95804 0.784481 2.95804 0
C 2.95804 -0.784481 2.646362 -1.536938 2.09165 -2.09165
C 1.536938 -2.646362 0.784481 -2.95804 0 -2.95804
C -0.784481 -2.95804 -1.536938 -2.646362 -2.09165 -2.09165
C -2.646362 -1.536938 -2.95804 -0.784481 -2.95804 0
C -2.95804 0.784481 -2.646362 1.536938 -2.09165 2.09165
C -1.536938 2.646362 -0.784481 2.95804 0 2.95804
z
" style="stroke: #009e73"/>
    </defs>
    <g clip-path="url(#peeeddee9c6)">
     <use xlink:href="#m473c45cc2a" x="545.206818" y="206.462341" style="fill: #ffffff; stroke: #009e73"/>
    </g>
   </g>
   <g id="PathCollection_11">
    <defs>
     <path id="m86bd6e89a5" d="M -2.95804 2.95804
L 2.95804 2.95804
L 2.95804 -2.95804
L -2.95804 -2.95804
z
" style="stroke: #0072b2"/>
    </defs>
    <g clip-path="url(#peeeddee9c6)">
     <use xlink:href="#m86bd6e89a5" x="102.143182" y="243.996068" style="fill: #0072b2; stroke: #0072b2"/>
    </g>
   </g>
   <g id="PathCollection_12">
    <defs>
     <path id="m8f9bda79fe" d="M 0 2.95804
C 0.784481 2.95804 1.536938 2.646362 2.09165 2.09165
C 2.646362 1.536938 2.95804 0.784481 2.95804 0
C 2.95804 -0.784481 2.646362 -1.536938 2.09165 -2.09165
C 1.536938 -2.646362 0.784481 -2.95804 0 -2.95804
C -0.784481 -2.95804 -1.536938 -2.646362 -2.09165 -2.09165
C -2.646362 -1.536938 -2.95804 -0.784481 -2.95804 0
C -2.95804 0.784481 -2.646362 1.536938 -2.09165 2.09165
C -1.536938 2.646362 -0.784481 2.95804 0 2.95804
z
" style="stroke: #0072b2"/>
    </defs>
    <g clip-path="url(#peeeddee9c6)">
     <use xlink:href="#m8f9bda79fe" x="399.5896" y="243.996068" style="fill: #ffffff; stroke: #0072b2"/>
    </g>
   </g>
   <g id="line2d_17">
    <path d="M 123.820769 56.327432
L 311.77943 56.327432
" clip-path="url(#peeeddee9c6)" style="fill: none; stroke: #d55e00; stroke-width: 1.3; stroke-linecap: square"/>
   </g>
   <g id="line2d_18">
    <path d="M 140.184269 93.861159
L 489.386115 93.861159
" clip-path="url(#peeeddee9c6)" style="fill: none; stroke: #cc79a7; stroke-width: 1.3; stroke-linecap: square"/>
   </g>
   <g id="line2d_19">
    <path d="M 152.334544 131.394886
L 502.040081 131.394886
" clip-path="url(#peeeddee9c6)" style="fill: none; stroke: #a88700; stroke-width: 1.3; stroke-linecap: square"/>
   </g>
   <g id="line2d_20">
    <path d="M 144.550338 168.928614
L 481.331782 168.928614
" clip-path="url(#peeeddee9c6)" style="fill: none; stroke: #56b4e9; stroke-width: 1.3; stroke-linecap: square"/>
   </g>
   <g id="line2d_21">
    <path d="M 172.142546 206.462341
L 545.206818 206.462341
" clip-path="url(#peeeddee9c6)" style="fill: none; stroke: #009e73; stroke-width: 1.3; stroke-linecap: square"/>
   </g>
   <g id="line2d_22">
    <path d="M 102.143182 243.996068
L 399.5896 243.996068
" clip-path="url(#peeeddee9c6)" style="fill: none; stroke: #0072b2; stroke-width: 1.3; stroke-linecap: square"/>
   </g>
   <g id="patch_3">
    <path d="M 79.99 253.3795
L 79.99 46.944
" style="fill: none; stroke: #000000; stroke-width: 0.65; stroke-linejoin: miter; stroke-linecap: square"/>
   </g>
   <g id="patch_4">
    <path d="M 79.99 253.3795
L 567.36 253.3795
" style="fill: none; stroke: #000000; stroke-width: 0.65; stroke-linejoin: miter; stroke-linecap: square"/>
   </g>
   <g id="legend_1">
    <g id="patch_5">
     <path d="M 433.331875 249.8795
L 562.46 249.8795
Q 563.86 249.8795 563.86 248.4795
L 563.86 228.630125
Q 563.86 227.230125 562.46 227.230125
L 433.331875 227.230125
Q 431.931875 227.230125 431.931875 228.630125
L 431.931875 248.4795
Q 431.931875 249.8795 433.331875 249.8795
z
" style="fill: #ffffff; opacity: 0.8; stroke: #cccccc; stroke-linejoin: miter"/>
    </g>
    <g id="line2d_23">
     <defs>
      <path id="m016b301a66" d="M -2 2
L 2 2
L 2 -2
L -2 -2
z
" style="stroke: #444444; stroke-linejoin: miter"/>
     </defs>
     <g>
      <use xlink:href="#m016b301a66" x="441.731875" y="232.899031" style="fill: #444444; stroke: #444444; stroke-linejoin: miter"/>
     </g>
    </g>
    <g id="text_13">
     <text style="font-size: 7px; font-family: 'DejaVu Sans'; text-anchor: start" x="454.331875" y="235.349031" transform="rotate(-0 454.331875 235.349031)">MAT-R: reference to generated</text>
    </g>
    <g id="line2d_24">
     <defs>
      <path id="m1e10275b76" d="M 0 2
C 0.530406 2 1.03916 1.789267 1.414214 1.414214
C 1.789267 1.03916 2 0.530406 2 0
C 2 -0.530406 1.789267 -1.03916 1.414214 -1.414214
C 1.03916 -1.789267 0.530406 -2 0 -2
C -0.530406 -2 -1.03916 -1.789267 -1.414214 -1.414214
C -1.789267 -1.03916 -2 -0.530406 -2 0
C -2 0.530406 -1.789267 1.03916 -1.414214 1.414214
C -1.03916 1.789267 -0.530406 2 0 2
z
" style="stroke: #444444"/>
     </defs>
     <g>
      <use xlink:href="#m1e10275b76" x="441.731875" y="243.173719" style="fill: #ffffff; stroke: #444444"/>
     </g>
    </g>
    <g id="text_14">
     <text style="font-size: 7px; font-family: 'DejaVu Sans'; text-anchor: start" x="454.331875" y="245.623719" transform="rotate(-0 454.331875 245.623719)">MAT-P: generated to reference</text>
    </g>
   </g>
  </g>
  <g id="text_15">
   <text style="font-size: 11px; font-family: 'DejaVu Sans'; text-anchor: start" x="11.52" y="14.454406" transform="rotate(-0 11.52 14.454406)">C15  |  Continuous matching distances complement coverage</text>
  </g>
  <g id="text_16">
   <text style="font-size: 7px; font-family: 'DejaVu Sans'; text-anchor: start; fill: #555555" x="11.52" y="298.7712" transform="rotate(-0 11.52 298.7712)">Exploratory drug set · 23 molecules · supplied pools without common PB filtering</text>
  </g>
 </g>
 <defs>
  <clipPath id="peeeddee9c6">
   <rect x="79.99" y="46.944" width="487.37" height="206.4355"/>
  </clipPath>
 </defs>
</svg>
