<?xml version="1.0" encoding="utf-8" standalone="no"?>
<!DOCTYPE svg PUBLIC "-//W3C//DTD SVG 1.1//EN"
  "http://www.w3.org/Graphics/SVG/1.1/DTD/svg11.dtd">
<svg xmlns:xlink="http://www.w3.org/1999/xlink" width="504pt" height="295.2pt" viewBox="0 0 504 295.2" xmlns="http://www.w3.org/2000/svg" version="1.1">
 <metadata>
  <rdf:RDF xmlns:dc="http://purl.org/dc/elements/1.1/" xmlns:cc="http://creativecommons.org/ns#" xmlns:rdf="http://www.w3.org/1999/02/22-rdf-syntax-ns#">
   <cc:Work>
    <dc:type rdf:resource="http://purl.org/dc/dcmitype/StillImage"/>
    <dc:date>2026-09-28T13:03:02.214314</dc:date>
    <dc:format>image/svg+xml</dc:format>
    <dc:creator>
     <cc:Agent>
      <dc:title>Matplotlib v3.10.9, https://matplotlib.org/</dc:title>
     </cc:Agent>
    </dc:creator>
   </cc:Work>
  </rdf:RDF>
 </metadata>
 <defs>
  <style type="text/css">*{stroke-linejoin: round; stroke-linecap: butt}</style>
 </defs>
 <g id="figure_1">
  <g id="patch_1">
   <path d="M 0 295.2 
L 504 295.2 
L 504 0 
L 0 0 
z
" style="fill: #ffffff"/>
  </g>
  <g id="axes_1">
   <g id="patch_2">
    <path d="M 45.36 218.448 
L 239.290435 218.448 
L 239.290435 44.28 
L 45.36 44.28 
z
" style="fill: #ffffff"/>
   </g>
   <g id="matplotlib.axis_1">
    <g id="xtick_1">
     <g id="line2d_1">
      <defs>
       <path id="m71655ee8d7" d="M 0 0 
L 0 3 
" style="stroke: #000000; stroke-width: 0.6"/>
      </defs>
      <g>
       <use xlink:href="#m71655ee8d7" x="52.542609" y="218.448" style="stroke: #000000; stroke-width: 0.6"/>
      </g>
     </g>
     <g id="text_1">
      <text style="font-size: 7px; font-family: 'DejaVu Sans'; text-anchor: middle" x="52.542609" y="230.266906" transform="rotate(-0 52.542609 230.266906)">0.5</text>
     </g>
    </g>
    <g id="xtick_2">
     <g id="line2d_2">
      <g>
       <use xlink:href="#m71655ee8d7" x="88.455652" y="218.448" style="stroke: #000000; stroke-width: 0.6"/>
      </g>
     </g>
     <g id="text_2">
      <text style="font-size: 7px; font-family: 'DejaVu Sans'; text-anchor: middle" x="88.455652" y="230.266906" transform="rotate(-0 88.455652 230.266906)">1.0</text>
     </g>
    </g>
    <g id="xtick_3">
     <g id="line2d_3">
      <g>
       <use xlink:href="#m71655ee8d7" x="160.281739" y="218.448" style="stroke: #000000; stroke-width: 0.6"/>
      </g>
     </g>
     <g id="text_3">
      <text style="font-size: 7px; font-family: 'DejaVu Sans'; text-anchor: middle" x="160.281739" y="230.266906" transform="rotate(-0 160.281739 230.266906)">2.0</text>
     </g>
    </g>
    <g id="xtick_4">
     <g id="line2d_4">
      <g>
       <use xlink:href="#m71655ee8d7" x="232.107826" y="218.448" style="stroke: #000000; stroke-width: 0.6"/>
      </g>
     </g>
     <g id="text_4">
      <text style="font-size: 7px; font-family: 'DejaVu Sans'; text-anchor: middle" x="232.107826" y="230.266906" transform="rotate(-0 232.107826 230.266906)">3.0</text>
     </g>
    </g>
    <g id="text_5">
     <text style="font-size: 8px; font-family: 'DejaVu Sans'; text-anchor: middle" x="142.325217" y="243.148937" transform="rotate(-0 142.325217 243.148937)">Clustering RMSD radius (Å)</text>
    </g>
   </g>
   <g id="matplotlib.axis_2">
    <g id="ytick_1">
     <g id="line2d_5">
      <path d="M 45.36 218.448 
L 239.290435 218.448 
" clip-path="url(#p0f02a58e40)" style="fill: none; stroke: #e5e7eb; stroke-width: 0.55; stroke-linecap: square"/>
     </g>
     <g id="line2d_6">
      <defs>
       <path id="m8701a0efd3" d="M 0 0 
L -3 0 
" style="stroke: #000000; stroke-width: 0.6"/>
      </defs>
      <g>
       <use xlink:href="#m8701a0efd3" x="45.36" y="218.448" style="stroke: #000000; stroke-width: 0.6"/>
      </g>
     </g>
     <g id="text_6">
      <text style="font-size: 7px; font-family: 'DejaVu Sans'; text-anchor: end" x="38.86" y="221.107453" transform="rotate(-0 38.86 221.107453)">0</text>
     </g>
    </g>
    <g id="ytick_2">
     <g id="line2d_7">
      <path d="M 45.36 190.620339 
L 239.290435 190.620339 
" clip-path="url(#p0f02a58e40)" style="fill: none; stroke: #e5e7eb; stroke-width: 0.55; stroke-linecap: square"/>
     </g>
     <g id="line2d_8">
      <g>
       <use xlink:href="#m8701a0efd3" x="45.36" y="190.620339" style="stroke: #000000; stroke-width: 0.6"/>
      </g>
     </g>
     <g id="text_7">
      <text style="font-size: 7px; font-family: 'DejaVu Sans'; text-anchor: end" x="38.86" y="193.279792" transform="rotate(-0 38.86 193.279792)">50</text>
     </g>
    </g>
    <g id="ytick_3">
     <g id="line2d_9">
      <path d="M 45.36 162.792678 
L 239.290435 162.792678 
" clip-path="url(#p0f02a58e40)" style="fill: none; stroke: #e5e7eb; stroke-width: 0.55; stroke-linecap: square"/>
     </g>
     <g id="line2d_10">
      <g>
       <use xlink:href="#m8701a0efd3" x="45.36" y="162.792678" style="stroke: #000000; stroke-width: 0.6"/>
      </g>
     </g>
     <g id="text_8">
      <text style="font-size: 7px; font-family: 'DejaVu Sans'; text-anchor: end" x="38.86" y="165.452132" transform="rotate(-0 38.86 165.452132)">100</text>
     </g>
    </g>
    <g id="ytick_4">
     <g id="line2d_11">
      <path d="M 45.36 134.965018 
L 239.290435 134.965018 
" clip-path="url(#p0f02a58e40)" style="fill: none; stroke: #e5e7eb; stroke-width: 0.55; stroke-linecap: square"/>
     </g>
     <g id="line2d_12">
      <g>
       <use xlink:href="#m8701a0efd3" x="45.36" y="134.965018" style="stroke: #000000; stroke-width: 0.6"/>
      </g>
     </g>
     <g id="text_9">
      <text style="font-size: 7px; font-family: 'DejaVu Sans'; text-anchor: end" x="38.86" y="137.624471" transform="rotate(-0 38.86 137.624471)">150</text>
     </g>
    </g>
    <g id="ytick_5">
     <g id="line2d_13">
      <path d="M 45.36 107.137357 
L 239.290435 107.137357 
" clip-path="url(#p0f02a58e40)" style="fill: none; stroke: #e5e7eb; stroke-width: 0.55; stroke-linecap: square"/>
     </g>
     <g id="line2d_14">
      <g>
       <use xlink:href="#m8701a0efd3" x="45.36" y="107.137357" style="stroke: #000000; stroke-width: 0.6"/>
      </g>
     </g>
     <g id="text_10">
      <text style="font-size: 7px; font-family: 'DejaVu Sans'; text-anchor: end" x="38.86" y="109.79681" transform="rotate(-0 38.86 109.79681)">200</text>
     </g>
    </g>
    <g id="ytick_6">
     <g id="line2d_15">
      <path d="M 45.36 79.309696 
L 239.290435 79.309696 
" clip-path="url(#p0f02a58e40)" style="fill: none; stroke: #e5e7eb; stroke-width: 0.55; stroke-linecap: square"/>
     </g>
     <g id="line2d_16">
      <g>
       <use xlink:href="#m8701a0efd3" x="45.36" y="79.309696" style="stroke: #000000; stroke-width: 0.6"/>
      </g>
     </g>
     <g id="text_11">
      <text style="font-size: 7px; font-family: 'DejaVu Sans'; text-anchor: end" x="38.86" y="81.969149" transform="rotate(-0 38.86 81.969149)">250</text>
     </g>
    </g>
    <g id="ytick_7">
     <g id="line2d_17">
      <path d="M 45.36 51.482035 
L 239.290435 51.482035 
" clip-path="url(#p0f02a58e40)" style="fill: none; stroke: #e5e7eb; stroke-width: 0.55; stroke-linecap: square"/>
     </g>
     <g id="line2d_18">
      <g>
       <use xlink:href="#m8701a0efd3" x="45.36" y="51.482035" style="stroke: #000000; stroke-width: 0.6"/>
      </g>
     </g>
     <g id="text_12">
      <text style="font-size: 7px; font-family: 'DejaVu Sans'; text-anchor: end" x="38.86" y="54.141489" transform="rotate(-0 38.86 54.141489)">300</text>
     </g>
    </g>
    <g id="text_13">
     <text style="font-size: 8px; font-family: 'DejaVu Sans'; text-anchor: middle" x="19.835" y="131.364" transform="rotate(-90 19.835 131.364)">Mean cluster count</text>
    </g>
   </g>
   <g id="line2d_19">
    <path d="M 52.542609 206.36369 
L 88.455652 214.167277 
L 160.281739 217.269765 
L 232.107826 217.778952 
" clip-path="url(#p0f02a58e40)" style="fill: none; stroke-dasharray: 4.07,1.76; stroke-dashoffset: 0; stroke: #252525; stroke-width: 1.1"/>
    <defs>
     <path id="m114e3f6e6a" d="M 0 -2 
L -1.732051 -1 
L -1.732051 1 
L -0 2 
L 1.732051 1 
L 1.732051 -1 
z
" style="stroke: #252525; stroke-linejoin: miter"/>
    </defs>
    <g clip-path="url(#p0f02a58e40)">
     <use xlink:href="#m114e3f6e6a" x="52.542609" y="206.36369" style="fill: #252525; stroke: #252525; stroke-linejoin: miter"/>
     <use xlink:href="#m114e3f6e6a" x="88.455652" y="214.167277" style="fill: #252525; stroke: #252525; stroke-linejoin: miter"/>
     <use xlink:href="#m114e3f6e6a" x="160.281739" y="217.269765" style="fill: #252525; stroke: #252525; stroke-linejoin: miter"/>
     <use xlink:href="#m114e3f6e6a" x="232.107826" y="217.778952" style="fill: #252525; stroke: #252525; stroke-linejoin: miter"/>
    </g>
   </g>
   <g id="line2d_20">
    <path d="M 52.542609 53.246428 
L 88.455652 177.162409 
L 160.281739 216.032322 
L 232.107826 217.654616 
" clip-path="url(#p0f02a58e40)" style="fill: none; stroke: #8c613c; stroke-width: 1.1; stroke-linecap: square"/>
    <defs>
     <path id="m97a05a8fcf" d="M 0 -2 
L -0.449028 -0.618034 
L -1.902113 -0.618034 
L -0.726543 0.236068 
L -1.175571 1.618034 
L -0 0.763932 
L 1.175571 1.618034 
L 0.726543 0.236068 
L 1.902113 -0.618034 
L 0.449028 -0.618034 
z
" style="stroke: #8c613c; stroke-linejoin: bevel"/>
    </defs>
    <g clip-path="url(#p0f02a58e40)">
     <use xlink:href="#m97a05a8fcf" x="52.542609" y="53.246428" style="fill: #8c613c; stroke: #8c613c; stroke-linejoin: bevel"/>
     <use xlink:href="#m97a05a8fcf" x="88.455652" y="177.162409" style="fill: #8c613c; stroke: #8c613c; stroke-linejoin: bevel"/>
     <use xlink:href="#m97a05a8fcf" x="160.281739" y="216.032322" style="fill: #8c613c; stroke: #8c613c; stroke-linejoin: bevel"/>
     <use xlink:href="#m97a05a8fcf" x="232.107826" y="217.654616" style="fill: #8c613c; stroke: #8c613c; stroke-linejoin: bevel"/>
    </g>
   </g>
   <g id="line2d_21">
    <path d="M 52.542609 154.651608 
L 88.455652 198.45353 
L 160.281739 216.517826 
L 232.107826 217.749348 
" clip-path="url(#p0f02a58e40)" style="fill: none; stroke: #737373; stroke-width: 1.1; stroke-linecap: square"/>
    <defs>
     <path id="m8cbe88a78f" d="M -1 2 
L 0 1 
L 1 2 
L 2 1 
L 1 0 
L 2 -1 
L 1 -2 
L 0 -1 
L -1 -2 
L -2 -1 
L -1 0 
L -2 1 
z
" style="stroke: #737373; stroke-linejoin: miter"/>
    </defs>
    <g clip-path="url(#p0f02a58e40)">
     <use xlink:href="#m8cbe88a78f" x="52.542609" y="154.651608" style="fill: #737373; stroke: #737373; stroke-linejoin: miter"/>
     <use xlink:href="#m8cbe88a78f" x="88.455652" y="198.45353" style="fill: #737373; stroke: #737373; stroke-linejoin: miter"/>
     <use xlink:href="#m8cbe88a78f" x="160.281739" y="216.517826" style="fill: #737373; stroke: #737373; stroke-linejoin: miter"/>
     <use xlink:href="#m8cbe88a78f" x="232.107826" y="217.749348" style="fill: #737373; stroke: #737373; stroke-linejoin: miter"/>
    </g>
   </g>
   <g id="line2d_22">
    <path d="M 52.542609 159.178075 
L 88.455652 200.931535 
L 160.281739 216.269663 
L 232.107826 217.634116 
" clip-path="url(#p0f02a58e40)" style="fill: none; stroke: #56b4e9; stroke-width: 1.1; stroke-linecap: square"/>
    <defs>
     <path id="mcbec378fc8" d="M -0.666667 2 
L 0.666667 2 
L 0.666667 0.666667 
L 2 0.666667 
L 2 -0.666667 
L 0.666667 -0.666667 
L 0.666667 -2 
L -0.666667 -2 
L -0.666667 -0.666667 
L -2 -0.666667 
L -2 0.666667 
L -0.666667 0.666667 
z
" style="stroke: #56b4e9; stroke-linejoin: miter"/>
    </defs>
    <g clip-path="url(#p0f02a58e40)">
     <use xlink:href="#mcbec378fc8" x="52.542609" y="159.178075" style="fill: #56b4e9; stroke: #56b4e9; stroke-linejoin: miter"/>
     <use xlink:href="#mcbec378fc8" x="88.455652" y="200.931535" style="fill: #56b4e9; stroke: #56b4e9; stroke-linejoin: miter"/>
     <use xlink:href="#mcbec378fc8" x="160.281739" y="216.269663" style="fill: #56b4e9; stroke: #56b4e9; stroke-linejoin: miter"/>
     <use xlink:href="#mcbec378fc8" x="232.107826" y="217.634116" style="fill: #56b4e9; stroke: #56b4e9; stroke-linejoin: miter"/>
    </g>
   </g>
   <g id="line2d_23">
    <path d="M 52.542609 157.053597 
L 88.455652 199.519206 
L 160.281739 216.155958 
L 232.107826 217.610178 
" clip-path="url(#p0f02a58e40)" style="fill: none; stroke: #a88700; stroke-width: 1.1; stroke-linecap: square"/>
    <defs>
     <path id="m018ea9d5ec" d="M -0 2 
L 2 -2 
L -2 -2 
z
" style="stroke: #a88700; stroke-linejoin: miter"/>
    </defs>
    <g clip-path="url(#p0f02a58e40)">
     <use xlink:href="#m018ea9d5ec" x="52.542609" y="157.053597" style="fill: #a88700; stroke: #a88700; stroke-linejoin: miter"/>
     <use xlink:href="#m018ea9d5ec" x="88.455652" y="199.519206" style="fill: #a88700; stroke: #a88700; stroke-linejoin: miter"/>
     <use xlink:href="#m018ea9d5ec" x="160.281739" y="216.155958" style="fill: #a88700; stroke: #a88700; stroke-linejoin: miter"/>
     <use xlink:href="#m018ea9d5ec" x="232.107826" y="217.610178" style="fill: #a88700; stroke: #a88700; stroke-linejoin: miter"/>
    </g>
   </g>
   <g id="line2d_24">
    <path d="M 52.542609 113.981777 
L 88.455652 187.896781 
L 160.281739 215.540898 
L 232.107826 217.619091 
" clip-path="url(#p0f02a58e40)" style="fill: none; stroke: #cc79a7; stroke-width: 1.1; stroke-linecap: square"/>
    <defs>
     <path id="m50ffb71642" d="M -0 2.828427 
L 2.828427 0 
L 0 -2.828427 
L -2.828427 -0 
z
" style="stroke: #cc79a7; stroke-linejoin: miter"/>
    </defs>
    <g clip-path="url(#p0f02a58e40)">
     <use xlink:href="#m50ffb71642" x="52.542609" y="113.981777" style="fill: #cc79a7; stroke: #cc79a7; stroke-linejoin: miter"/>
     <use xlink:href="#m50ffb71642" x="88.455652" y="187.896781" style="fill: #cc79a7; stroke: #cc79a7; stroke-linejoin: miter"/>
     <use xlink:href="#m50ffb71642" x="160.281739" y="215.540898" style="fill: #cc79a7; stroke: #cc79a7; stroke-linejoin: miter"/>
     <use xlink:href="#m50ffb71642" x="232.107826" y="217.619091" style="fill: #cc79a7; stroke: #cc79a7; stroke-linejoin: miter"/>
    </g>
   </g>
   <g id="line2d_25">
    <path d="M 52.542609 52.541855 
L 88.455652 154.799627 
L 160.281739 213.373892 
L 232.107826 217.423705 
" clip-path="url(#p0f02a58e40)" style="fill: none; stroke: #009e73; stroke-width: 1.1; stroke-linecap: square"/>
    <defs>
     <path id="m9274acd8d8" d="M 0 -2 
L -2 2 
L 2 2 
z
" style="stroke: #009e73; stroke-linejoin: miter"/>
    </defs>
    <g clip-path="url(#p0f02a58e40)">
     <use xlink:href="#m9274acd8d8" x="52.542609" y="52.541855" style="fill: #009e73; stroke: #009e73; stroke-linejoin: miter"/>
     <use xlink:href="#m9274acd8d8" x="88.455652" y="154.799627" style="fill: #009e73; stroke: #009e73; stroke-linejoin: miter"/>
     <use xlink:href="#m9274acd8d8" x="160.281739" y="213.373892" style="fill: #009e73; stroke: #009e73; stroke-linejoin: miter"/>
     <use xlink:href="#m9274acd8d8" x="232.107826" y="217.423705" style="fill: #009e73; stroke: #009e73; stroke-linejoin: miter"/>
    </g>
   </g>
   <g id="line2d_26">
    <path d="M 52.542609 171.442936 
L 88.455652 207.228124 
L 160.281739 216.902677 
L 232.107826 217.731586 
" clip-path="url(#p0f02a58e40)" style="fill: none; stroke: #d55e00; stroke-width: 1.1; stroke-linecap: square"/>
    <defs>
     <path id="mc564ce1a8e" d="M -2 2 
L 2 2 
L 2 -2 
L -2 -2 
z
" style="stroke: #d55e00; stroke-linejoin: miter"/>
    </defs>
    <g clip-path="url(#p0f02a58e40)">
     <use xlink:href="#mc564ce1a8e" x="52.542609" y="171.442936" style="fill: #d55e00; stroke: #d55e00; stroke-linejoin: miter"/>
     <use xlink:href="#mc564ce1a8e" x="88.455652" y="207.228124" style="fill: #d55e00; stroke: #d55e00; stroke-linejoin: miter"/>
     <use xlink:href="#mc564ce1a8e" x="160.281739" y="216.902677" style="fill: #d55e00; stroke: #d55e00; stroke-linejoin: miter"/>
     <use xlink:href="#mc564ce1a8e" x="232.107826" y="217.731586" style="fill: #d55e00; stroke: #d55e00; stroke-linejoin: miter"/>
    </g>
   </g>
   <g id="line2d_27">
    <path d="M 52.542609 60.126373 
L 88.455652 177.938031 
L 160.281739 215.86654 
L 232.107826 217.630933 
" clip-path="url(#p0f02a58e40)" style="fill: none; stroke: #0072b2; stroke-width: 1.8; stroke-linecap: square"/>
    <defs>
     <path id="mc0c8594e6c" d="M 0 2 
C 0.530406 2 1.03916 1.789267 1.414214 1.414214 
C 1.789267 1.03916 2 0.530406 2 0 
C 2 -0.530406 1.789267 -1.03916 1.414214 -1.414214 
C 1.03916 -1.789267 0.530406 -2 0 -2 
C -0.530406 -2 -1.03916 -1.789267 -1.414214 -1.414214 
C -1.789267 -1.03916 -2 -0.530406 -2 0 
C -2 0.530406 -1.789267 1.03916 -1.414214 1.414214 
C -1.03916 1.789267 -0.530406 2 0 2 
z
" style="stroke: #0072b2"/>
    </defs>
    <g clip-path="url(#p0f02a58e40)">
     <use xlink:href="#mc0c8594e6c" x="52.542609" y="60.126373" style="fill: #0072b2; stroke: #0072b2"/>
     <use xlink:href="#mc0c8594e6c" x="88.455652" y="177.938031" style="fill: #0072b2; stroke: #0072b2"/>
     <use xlink:href="#mc0c8594e6c" x="160.281739" y="215.86654" style="fill: #0072b2; stroke: #0072b2"/>
     <use xlink:href="#mc0c8594e6c" x="232.107826" y="217.630933" style="fill: #0072b2; stroke: #0072b2"/>
    </g>
   </g>
   <g id="line2d_28">
    <path d="M 88.455652 218.448 
L 88.455652 44.28 
" clip-path="url(#p0f02a58e40)" style="fill: none; stroke-dasharray: 0.8,1.32; stroke-dashoffset: 0; stroke: #b6bdc5; stroke-width: 0.8"/>
   </g>
   <g id="patch_3">
    <path d="M 45.36 218.448 
L 45.36 44.28 
" style="fill: none; stroke: #000000; stroke-width: 0.65; stroke-linejoin: miter; stroke-linecap: square"/>
   </g>
   <g id="patch_4">
    <path d="M 45.36 218.448 
L 239.290435 218.448 
" style="fill: none; stroke: #000000; stroke-width: 0.65; stroke-linejoin: miter; stroke-linecap: square"/>
   </g>
   <g id="text_14">
    <text style="font-weight: 700; font-size: 11px; font-family: 'DejaVu Sans'; text-anchor: start" x="20.149043" y="34.70076" transform="rotate(-0 20.149043 34.70076)">A</text>
   </g>
   <g id="text_15">
    <text style="font-size: 9px; font-family: 'DejaVu Sans'; text-anchor: start" x="45.36" y="32.28" transform="rotate(-0 45.36 32.28)">Geometric resolution · core</text>
   </g>
  </g>
  <g id="axes_2">
   <g id="patch_5">
    <path d="M 297.469565 218.448 
L 491.4 218.448 
L 491.4 44.28 
L 297.469565 44.28 
z
" style="fill: #ffffff"/>
   </g>
   <g id="matplotlib.axis_3">
    <g id="xtick_5">
     <g id="line2d_29">
      <g>
       <use xlink:href="#m71655ee8d7" x="297.469565" y="218.448" style="stroke: #000000; stroke-width: 0.6"/>
      </g>
     </g>
     <g id="text_16">
      <text style="font-size: 7px; font-family: 'DejaVu Sans'; text-anchor: middle" x="297.469565" y="230.266906" transform="rotate(-0 297.469565 230.266906)">0</text>
     </g>
    </g>
    <g id="xtick_6">
     <g id="line2d_30">
      <g>
       <use xlink:href="#m71655ee8d7" x="328.498435" y="218.448" style="stroke: #000000; stroke-width: 0.6"/>
      </g>
     </g>
     <g id="text_17">
      <text style="font-size: 7px; font-family: 'DejaVu Sans'; text-anchor: middle" x="328.498435" y="230.266906" transform="rotate(-0 328.498435 230.266906)">20</text>
     </g>
    </g>
    <g id="xtick_7">
     <g id="line2d_31">
      <g>
       <use xlink:href="#m71655ee8d7" x="359.527304" y="218.448" style="stroke: #000000; stroke-width: 0.6"/>
      </g>
     </g>
     <g id="text_18">
      <text style="font-size: 7px; font-family: 'DejaVu Sans'; text-anchor: middle" x="359.527304" y="230.266906" transform="rotate(-0 359.527304 230.266906)">40</text>
     </g>
    </g>
    <g id="xtick_8">
     <g id="line2d_32">
      <g>
       <use xlink:href="#m71655ee8d7" x="390.556174" y="218.448" style="stroke: #000000; stroke-width: 0.6"/>
      </g>
     </g>
     <g id="text_19">
      <text style="font-size: 7px; font-family: 'DejaVu Sans'; text-anchor: middle" x="390.556174" y="230.266906" transform="rotate(-0 390.556174 230.266906)">60</text>
     </g>
    </g>
    <g id="xtick_9">
     <g id="line2d_33">
      <g>
       <use xlink:href="#m71655ee8d7" x="421.585043" y="218.448" style="stroke: #000000; stroke-width: 0.6"/>
      </g>
     </g>
     <g id="text_20">
      <text style="font-size: 7px; font-family: 'DejaVu Sans'; text-anchor: middle" x="421.585043" y="230.266906" transform="rotate(-0 421.585043 230.266906)">80</text>
     </g>
    </g>
    <g id="xtick_10">
     <g id="line2d_34">
      <g>
       <use xlink:href="#m71655ee8d7" x="452.613913" y="218.448" style="stroke: #000000; stroke-width: 0.6"/>
      </g>
     </g>
     <g id="text_21">
      <text style="font-size: 7px; font-family: 'DejaVu Sans'; text-anchor: middle" x="452.613913" y="230.266906" transform="rotate(-0 452.613913 230.266906)">100</text>
     </g>
    </g>
    <g id="xtick_11">
     <g id="line2d_35">
      <g>
       <use xlink:href="#m71655ee8d7" x="483.642783" y="218.448" style="stroke: #000000; stroke-width: 0.6"/>
      </g>
     </g>
     <g id="text_22">
      <text style="font-size: 7px; font-family: 'DejaVu Sans'; text-anchor: middle" x="483.642783" y="230.266906" transform="rotate(-0 483.642783 230.266906)">120</text>
     </g>
    </g>
    <g id="text_23">
     <text style="font-size: 8px; font-family: 'DejaVu Sans'; text-anchor: middle" x="394.434783" y="241.801437" transform="rotate(-0 394.434783 241.801437)">Mean cluster count at 1.0 Å</text>
    </g>
   </g>
   <g id="matplotlib.axis_4">
    <g id="ytick_8">
     <g id="line2d_36">
      <path d="M 297.469565 199.096 
L 491.4 199.096 
" clip-path="url(#p9e33660575)" style="fill: none; stroke: #e5e7eb; stroke-width: 0.55; stroke-linecap: square"/>
     </g>
     <g id="line2d_37">
      <g>
       <use xlink:href="#m8701a0efd3" x="297.469565" y="199.096" style="stroke: #000000; stroke-width: 0.6"/>
      </g>
     </g>
     <g id="text_24">
      <text style="font-size: 7px; font-family: 'DejaVu Sans'; text-anchor: end" x="290.969565" y="201.755453" transform="rotate(-0 290.969565 201.755453)">75</text>
     </g>
    </g>
    <g id="ytick_9">
     <g id="line2d_38">
      <path d="M 297.469565 166.842667 
L 491.4 166.842667 
" clip-path="url(#p9e33660575)" style="fill: none; stroke: #e5e7eb; stroke-width: 0.55; stroke-linecap: square"/>
     </g>
     <g id="line2d_39">
      <g>
       <use xlink:href="#m8701a0efd3" x="297.469565" y="166.842667" style="stroke: #000000; stroke-width: 0.6"/>
      </g>
     </g>
     <g id="text_25">
      <text style="font-size: 7px; font-family: 'DejaVu Sans'; text-anchor: end" x="290.969565" y="169.50212" transform="rotate(-0 290.969565 169.50212)">80</text>
     </g>
    </g>
    <g id="ytick_10">
     <g id="line2d_40">
      <path d="M 297.469565 134.589333 
L 491.4 134.589333 
" clip-path="url(#p9e33660575)" style="fill: none; stroke: #e5e7eb; stroke-width: 0.55; stroke-linecap: square"/>
     </g>
     <g id="line2d_41">
      <g>
       <use xlink:href="#m8701a0efd3" x="297.469565" y="134.589333" style="stroke: #000000; stroke-width: 0.6"/>
      </g>
     </g>
     <g id="text_26">
      <text style="font-size: 7px; font-family: 'DejaVu Sans'; text-anchor: end" x="290.969565" y="137.248786" transform="rotate(-0 290.969565 137.248786)">85</text>
     </g>
    </g>
    <g id="ytick_11">
     <g id="line2d_42">
      <path d="M 297.469565 102.336 
L 491.4 102.336 
" clip-path="url(#p9e33660575)" style="fill: none; stroke: #e5e7eb; stroke-width: 0.55; stroke-linecap: square"/>
     </g>
     <g id="line2d_43">
      <g>
       <use xlink:href="#m8701a0efd3" x="297.469565" y="102.336" style="stroke: #000000; stroke-width: 0.6"/>
      </g>
     </g>
     <g id="text_27">
      <text style="font-size: 7px; font-family: 'DejaVu Sans'; text-anchor: end" x="290.969565" y="104.995453" transform="rotate(-0 290.969565 104.995453)">90</text>
     </g>
    </g>
    <g id="ytick_12">
     <g id="line2d_44">
      <path d="M 297.469565 70.082667 
L 491.4 70.082667 
" clip-path="url(#p9e33660575)" style="fill: none; stroke: #e5e7eb; stroke-width: 0.55; stroke-linecap: square"/>
     </g>
     <g id="line2d_45">
      <g>
       <use xlink:href="#m8701a0efd3" x="297.469565" y="70.082667" style="stroke: #000000; stroke-width: 0.6"/>
      </g>
     </g>
     <g id="text_28">
      <text style="font-size: 7px; font-family: 'DejaVu Sans'; text-anchor: end" x="290.969565" y="72.74212" transform="rotate(-0 290.969565 72.74212)">95</text>
     </g>
    </g>
    <g id="text_29">
     <text style="font-size: 8px; font-family: 'DejaVu Sans'; text-anchor: middle" x="276.398315" y="131.364" transform="rotate(-90 276.398315 131.364)">Recovered targets at 0.75 Å (%)</text>
    </g>
   </g>
   <g id="patch_6">
    <path d="M 297.469565 218.448 
L 297.469565 44.28 
" style="fill: none; stroke: #000000; stroke-width: 0.65; stroke-linejoin: miter; stroke-linecap: square"/>
   </g>
   <g id="patch_7">
    <path d="M 297.469565 218.448 
L 491.4 218.448 
" style="fill: none; stroke: #000000; stroke-width: 0.65; stroke-linejoin: miter; stroke-linecap: square"/>
   </g>
   <g id="PathCollection_1">
    <defs>
     <path id="mde4244ffd6" d="M 0 -3 
L -2.598076 -1.5 
L -2.598076 1.5 
L -0 3 
L 2.598076 1.5 
L 2.598076 -1.5 
z
" style="stroke: #ffffff; stroke-width: 0.4"/>
    </defs>
    <g clip-path="url(#p9e33660575)">
     <use xlink:href="#mde4244ffd6" x="309.402476" y="175.07756" style="fill: #252525; stroke: #ffffff; stroke-width: 0.4"/>
    </g>
   </g>
   <g id="text_30">
    <text style="font-size: 7px; font-family: 'DejaVu Sans'; text-anchor: start; fill: #252525" x="313.402476" y="189.07756" transform="rotate(-0 313.402476 189.07756)">ChEMBL3D-PB</text>
   </g>
   <g id="PathCollection_2">
    <defs>
     <path id="me3bbc62991" d="M 0 -3 
L -0.673542 -0.927051 
L -2.85317 -0.927051 
L -1.089814 0.354102 
L -1.763356 2.427051 
L -0 1.145898 
L 1.763356 2.427051 
L 1.089814 0.354102 
L 2.85317 -0.927051 
L 0.673542 -0.927051 
z
" style="stroke: #ffffff; stroke-width: 0.4"/>
    </defs>
    <g clip-path="url(#p9e33660575)">
     <use xlink:href="#me3bbc62991" x="412.556963" y="175.07756" style="fill: #8c613c; stroke: #ffffff; stroke-width: 0.4"/>
    </g>
   </g>
   <g id="text_31">
    <text style="font-size: 7px; font-family: 'DejaVu Sans'; text-anchor: start; fill: #8c613c" x="417.556963" y="187.07756" transform="rotate(-0 417.556963 187.07756)">Torsion raw</text>
   </g>
   <g id="PathCollection_3">
    <defs>
     <path id="m5e00abd784" d="M -1.5 3 
L 0 1.5 
L 1.5 3 
L 3 1.5 
L 1.5 0 
L 3 -1.5 
L 1.5 -3 
L 0 -1.5 
L -1.5 -3 
L -3 -1.5 
L -1.5 0 
L -3 1.5 
z
" style="stroke: #ffffff; stroke-width: 0.4"/>
    </defs>
    <g clip-path="url(#p9e33660575)">
     <use xlink:href="#m5e00abd784" x="353.205997" y="161.352738" style="fill: #737373; stroke: #ffffff; stroke-width: 0.4"/>
    </g>
   </g>
   <g id="PathCollection_4">
    <defs>
     <path id="m87bc39b273" d="M -1 3 
L 1 3 
L 1 1 
L 3 1 
L 3 -1 
L 1 -1 
L 1 -3 
L -1 -3 
L -1 -1 
L -3 -1 
L -3 1 
L -1 1 
z
" style="stroke: #ffffff; stroke-width: 0.4"/>
    </defs>
    <g clip-path="url(#p9e33660575)">
     <use xlink:href="#m87bc39b273" x="346.298329" y="127.040681" style="fill: #56b4e9; stroke: #ffffff; stroke-width: 0.4"/>
    </g>
   </g>
   <g id="PathCollection_5">
    <defs>
     <path id="m391a27acd3" d="M -0 3 
L 3 -3 
L -3 -3 
z
" style="stroke: #ffffff; stroke-width: 0.4"/>
    </defs>
    <g clip-path="url(#p9e33660575)">
     <use xlink:href="#m391a27acd3" x="350.235326" y="127.040681" style="fill: #a88700; stroke: #ffffff; stroke-width: 0.4"/>
    </g>
   </g>
   <g id="PathCollection_6">
    <defs>
     <path id="md276b4e53d" d="M -0 4.242641 
L 4.242641 0 
L 0 -4.242641 
L -4.242641 -0 
z
" style="stroke: #ffffff; stroke-width: 0.4"/>
    </defs>
    <g clip-path="url(#p9e33660575)">
     <use xlink:href="#md276b4e53d" x="382.633909" y="106.453447" style="fill: #cc79a7; stroke: #ffffff; stroke-width: 0.4"/>
    </g>
   </g>
   <g id="PathCollection_7">
    <defs>
     <path id="m925498dd68" d="M 0 -3 
L -3 3 
L 3 3 
z
" style="stroke: #ffffff; stroke-width: 0.4"/>
    </defs>
    <g clip-path="url(#p9e33660575)">
     <use xlink:href="#m925498dd68" x="474.895282" y="127.040681" style="fill: #009e73; stroke: #ffffff; stroke-width: 0.4"/>
    </g>
   </g>
   <g id="text_32">
    <text style="font-size: 7px; font-family: 'DejaVu Sans'; text-anchor: start; fill: #009e73" x="443.895282" y="118.040681" transform="rotate(-0 443.895282 118.040681)">FlowR</text>
   </g>
   <g id="PathCollection_8">
    <defs>
     <path id="mf655f39b27" d="M -3 3 
L 3 3 
L 3 -3 
L -3 -3 
z
" style="stroke: #ffffff; stroke-width: 0.4"/>
    </defs>
    <g clip-path="url(#p9e33660575)">
     <use xlink:href="#mf655f39b27" x="328.746006" y="127.040681" style="fill: #d55e00; stroke: #ffffff; stroke-width: 0.4"/>
    </g>
   </g>
   <g id="text_33">
    <text style="font-size: 7px; font-family: 'DejaVu Sans'; text-anchor: start; fill: #d55e00" x="324.746006" y="119.040681" transform="rotate(-0 324.746006 119.040681)">LoQI</text>
   </g>
   <g id="PathCollection_9">
    <defs>
     <path id="macf5016359" d="M 0 3 
C 0.795609 3 1.55874 2.683901 2.12132 2.12132 
C 2.683901 1.55874 3 0.795609 3 0 
C 3 -0.795609 2.683901 -1.55874 2.12132 -2.12132 
C 1.55874 -2.683901 0.795609 -3 0 -3 
C -0.795609 -3 -1.55874 -2.683901 -2.12132 -2.12132 
C -2.683901 -1.55874 -3 -0.795609 -3 0 
C -3 0.795609 -2.683901 1.55874 -2.12132 2.12132 
C -1.55874 2.683901 -0.795609 3 0 3 
z
" style="stroke: #ffffff; stroke-width: 0.4"/>
    </defs>
    <g clip-path="url(#p9e33660575)">
     <use xlink:href="#macf5016359" x="410.394845" y="92.728624" style="fill: #0072b2; stroke: #ffffff; stroke-width: 0.4"/>
    </g>
   </g>
   <g id="text_34">
    <text style="font-size: 7px; font-family: 'DejaVu Sans'; text-anchor: start; fill: #0072b2" x="415.394845" y="85.728624" transform="rotate(-0 415.394845 85.728624)">Qwen 1.7B FSQ</text>
   </g>
   <g id="text_35">
    <text style="font-weight: 700; font-size: 11px; font-family: 'DejaVu Sans'; text-anchor: start" x="272.258609" y="34.70076" transform="rotate(-0 272.258609 34.70076)">B</text>
   </g>
   <g id="text_36">
    <text style="font-size: 9px; font-family: 'DejaVu Sans'; text-anchor: start" x="297.469565" y="32.28" transform="rotate(-0 297.469565 32.28)">Diversity and recovery · core</text>
   </g>
  </g>
  <g id="legend_1">
   <g id="line2d_46">
    <path d="M 126.285469 260.016844 
L 133.635469 260.016844 
L 140.985469 260.016844 
" style="fill: none; stroke: #0072b2; stroke-width: 1.3; stroke-linecap: square"/>
    <g>
     <use xlink:href="#mc0c8594e6c" x="133.635469" y="260.016844" style="fill: #0072b2; stroke: #0072b2"/>
    </g>
   </g>
   <g id="text_37">
    <text style="font-size: 7px; font-family: 'DejaVu Sans'; text-anchor: start" x="146.585469" y="262.466844" transform="rotate(-0 146.585469 262.466844)">Qwen 1.7B FSQ</text>
   </g>
   <g id="line2d_47">
    <path d="M 126.285469 270.291531 
L 133.635469 270.291531 
L 140.985469 270.291531 
" style="fill: none; stroke: #d55e00; stroke-width: 1.3; stroke-linecap: square"/>
    <g>
     <use xlink:href="#mc564ce1a8e" x="133.635469" y="270.291531" style="fill: #d55e00; stroke: #d55e00; stroke-linejoin: miter"/>
    </g>
   </g>
   <g id="text_38">
    <text style="font-size: 7px; font-family: 'DejaVu Sans'; text-anchor: start" x="146.585469" y="272.741531" transform="rotate(-0 146.585469 272.741531)">LoQI</text>
   </g>
   <g id="line2d_48">
    <path d="M 126.285469 280.566219 
L 133.635469 280.566219 
L 140.985469 280.566219 
" style="fill: none; stroke: #009e73; stroke-width: 1.3; stroke-linecap: square"/>
    <g>
     <use xlink:href="#m9274acd8d8" x="133.635469" y="280.566219" style="fill: #009e73; stroke: #009e73; stroke-linejoin: miter"/>
    </g>
   </g>
   <g id="text_39">
    <text style="font-size: 7px; font-family: 'DejaVu Sans'; text-anchor: start" x="146.585469" y="283.016219" transform="rotate(-0 146.585469 283.016219)">FlowR</text>
   </g>
   <g id="line2d_49">
    <path d="M 212.005937 260.016844 
L 219.355937 260.016844 
L 226.705937 260.016844 
" style="fill: none; stroke: #cc79a7; stroke-width: 1.3; stroke-linecap: square"/>
    <g>
     <use xlink:href="#m50ffb71642" x="219.355937" y="260.016844" style="fill: #cc79a7; stroke: #cc79a7; stroke-linejoin: miter"/>
    </g>
   </g>
   <g id="text_40">
    <text style="font-size: 7px; font-family: 'DejaVu Sans'; text-anchor: start" x="232.305937" y="262.466844" transform="rotate(-0 232.305937 262.466844)">Torsional Diffusion</text>
   </g>
   <g id="line2d_50">
    <path d="M 212.005937 270.291531 
L 219.355937 270.291531 
L 226.705937 270.291531 
" style="fill: none; stroke: #a88700; stroke-width: 1.3; stroke-linecap: square"/>
    <g>
     <use xlink:href="#m018ea9d5ec" x="219.355937" y="270.291531" style="fill: #a88700; stroke: #a88700; stroke-linejoin: miter"/>
    </g>
   </g>
   <g id="text_41">
    <text style="font-size: 7px; font-family: 'DejaVu Sans'; text-anchor: start" x="232.305937" y="272.741531" transform="rotate(-0 232.305937 272.741531)">MCF drugs-L</text>
   </g>
   <g id="line2d_51">
    <path d="M 212.005937 280.566219 
L 219.355937 280.566219 
L 226.705937 280.566219 
" style="fill: none; stroke: #56b4e9; stroke-width: 1.3; stroke-linecap: square"/>
    <g>
     <use xlink:href="#mcbec378fc8" x="219.355937" y="280.566219" style="fill: #56b4e9; stroke: #56b4e9; stroke-linejoin: miter"/>
    </g>
   </g>
   <g id="text_42">
    <text style="font-size: 7px; font-family: 'DejaVu Sans'; text-anchor: start" x="232.305937" y="283.016219" transform="rotate(-0 232.305937 283.016219)">NExT-Mol DMT-L</text>
   </g>
   <g id="line2d_52">
    <path d="M 307.531875 260.016844 
L 314.881875 260.016844 
L 322.231875 260.016844 
" style="fill: none; stroke: #737373; stroke-width: 1.3; stroke-linecap: square"/>
    <g>
     <use xlink:href="#m8cbe88a78f" x="314.881875" y="260.016844" style="fill: #737373; stroke: #737373; stroke-linejoin: miter"/>
    </g>
   </g>
   <g id="text_43">
    <text style="font-size: 7px; font-family: 'DejaVu Sans'; text-anchor: start" x="327.831875" y="262.466844" transform="rotate(-0 327.831875 262.466844)">RDKit raw</text>
   </g>
   <g id="line2d_53">
    <path d="M 307.531875 270.291531 
L 314.881875 270.291531 
L 322.231875 270.291531 
" style="fill: none; stroke: #8c613c; stroke-width: 1.3; stroke-linecap: square"/>
    <g>
     <use xlink:href="#m97a05a8fcf" x="314.881875" y="270.291531" style="fill: #8c613c; stroke: #8c613c; stroke-linejoin: bevel"/>
    </g>
   </g>
   <g id="text_44">
    <text style="font-size: 7px; font-family: 'DejaVu Sans'; text-anchor: start" x="327.831875" y="272.741531" transform="rotate(-0 327.831875 272.741531)">Torsion raw</text>
   </g>
   <g id="line2d_54">
    <path d="M 307.531875 280.566219 
L 314.881875 280.566219 
L 322.231875 280.566219 
" style="fill: none; stroke-dasharray: 4.81,2.08; stroke-dashoffset: 0; stroke: #252525; stroke-width: 1.3"/>
    <g>
     <use xlink:href="#m114e3f6e6a" x="314.881875" y="280.566219" style="fill: #252525; stroke: #252525; stroke-linejoin: miter"/>
    </g>
   </g>
   <g id="text_45">
    <text style="font-size: 7px; font-family: 'DejaVu Sans'; text-anchor: start" x="327.831875" y="283.016219" transform="rotate(-0 327.831875 283.016219)">ChEMBL3D-PB</text>
   </g>
  </g>
 </g>
 <defs>
  <clipPath id="p0f02a58e40">
   <rect x="45.36" y="44.28" width="193.930435" height="174.168"/>
  </clipPath>
  <clipPath id="p9e33660575">
   <rect x="297.469565" y="44.28" width="193.930435" height="174.168"/>
  </clipPath>
 </defs>
</svg>
